<svg xmlns="http://www.w3.org/2000/svg" xmlns:xlink="http://www.w3.org/1999/xlink" width="0" height="0" style="position:absolute">
	
		<symbol id="align-reset" viewBox="0 0 32 32">
			<path d="M16 2.667C8.64 2.667 2.667 8.64 2.667 16S8.64 29.333 16 29.333 29.333 23.36 29.333 16 23.36 2.667 16 2.667zM5.333 16c0-5.893 4.773-10.667 10.667-10.667 2.467 0 4.733.84 6.533 2.253L7.586 22.533A10.539 10.539 0 0 1 5.333 16zM16 26.667c-2.467 0-4.733-.84-6.533-2.253L24.414 9.467A10.539 10.539 0 0 1 26.667 16c0 5.893-4.773 10.667-10.667 10.667z"></path>
		</symbol>
	
		<symbol id="columns" viewBox="0 0 416 448">
			<path d="M40 384h152V96H32v280c0 4.25 3.75 8 8 8zm344-8V96H224v288h152c4.25 0 8-3.75 8-8zm32-304v304c0 22-18 40-40 40H40c-22 0-40-18-40-40V72c0-22 18-40 40-40h336c22 0 40 18 40 40z"></path>
		</symbol>
	
</svg>
